<svg width="36" height="36" viewBox="0 0 36 36" fill="none" xmlns="http://www.w3.org/2000/svg">
<g clip-path="url(#clip0_1_28)">
<path d="M26.2499 2.8748C24.5609 2.90107 22.9086 3.37258 21.4601 4.24171C20.0115 5.11084 18.818 6.34681 17.9999 7.8248C17.1819 6.34681 15.9883 5.11084 14.5398 4.24171C13.0912 3.37258 11.439 2.90107 9.74994 2.8748C7.05735 2.99179 4.5205 4.16968 2.69361 6.15115C0.866727 8.13262 -0.101688 10.7566 -6.25639e-05 13.4498C-6.25639e-05 20.2703 7.17894 27.7193 13.1999 32.7698C14.5443 33.8995 16.244 34.5188 17.9999 34.5188C19.7559 34.5188 21.4556 33.8995 22.7999 32.7698C28.8209 27.7193 35.9999 20.2703 35.9999 13.4498C36.1016 10.7566 35.1331 8.13262 33.3063 6.15115C31.4794 4.16968 28.9425 2.99179 26.2499 2.8748ZM20.8724 30.4748C20.0684 31.1519 19.0511 31.5232 17.9999 31.5232C16.9488 31.5232 15.9315 31.1519 15.1274 30.4748C7.42044 24.0083 2.99994 17.8043 2.99994 13.4498C2.8974 11.5519 3.54949 9.6904 4.81398 8.27135C6.07848 6.85231 7.85279 5.99083 9.74994 5.8748C11.6471 5.99083 13.4214 6.85231 14.6859 8.27135C15.9504 9.6904 16.6025 11.5519 16.4999 13.4498C16.4999 13.8476 16.658 14.2292 16.9393 14.5105C17.2206 14.7918 17.6021 14.9498 17.9999 14.9498C18.3978 14.9498 18.7793 14.7918 19.0606 14.5105C19.3419 14.2292 19.4999 13.8476 19.4999 13.4498C19.3974 11.5519 20.0495 9.6904 21.314 8.27135C22.5785 6.85231 24.3528 5.99083 26.2499 5.8748C28.1471 5.99083 29.9214 6.85231 31.1859 8.27135C32.4504 9.6904 33.1025 11.5519 32.9999 13.4498C32.9999 17.8043 28.5794 24.0083 20.8724 30.4688V30.4748Z" fill="white"/>
</g>
<defs>
<clipPath id="clip0_1_28">
<rect width="36" height="36" fill="white"/>
</clipPath>
</defs>
</svg>
