<svg width="36" height="36" viewBox="0 0 36 36" fill="none" xmlns="http://www.w3.org/2000/svg">
<g clip-path="url(#clip0_1_37)">
<path d="M18 17.9999C19.78 17.9999 21.5201 17.4721 23.0001 16.4831C24.4802 15.4942 25.6337 14.0886 26.3149 12.4441C26.9961 10.7995 27.1743 8.98992 26.8271 7.24409C26.4798 5.49827 25.6226 3.89462 24.364 2.63595C23.1053 1.37727 21.5016 0.520106 19.7558 0.172839C18.01 -0.174428 16.2004 0.0038023 14.5558 0.684991C12.9113 1.36618 11.5057 2.51973 10.5168 3.99977C9.52784 5.47982 9 7.21988 9 8.99991C9.00238 11.3861 9.95136 13.6739 11.6387 15.3612C13.326 17.0485 15.6138 17.9975 18 17.9999ZM18 2.99991C19.1867 2.99991 20.3467 3.3518 21.3334 4.01109C22.3201 4.67038 23.0892 5.60745 23.5433 6.70381C23.9974 7.80016 24.1162 9.00656 23.8847 10.1704C23.6532 11.3343 23.0818 12.4034 22.2426 13.2425C21.4035 14.0817 20.3344 14.6531 19.1705 14.8846C18.0067 15.1161 16.8003 14.9973 15.7039 14.5432C14.6075 14.0891 13.6705 13.32 13.0112 12.3333C12.3519 11.3466 12 10.1866 12 8.99991C12 7.40861 12.6321 5.88248 13.7574 4.75727C14.8826 3.63205 16.4087 2.99991 18 2.99991Z" fill="white"/>
<path d="M18 21.0009C14.4208 21.0049 10.9893 22.4285 8.45844 24.9594C5.92756 27.4902 4.50397 30.9217 4.5 34.5009C4.5 34.8987 4.65804 35.2803 4.93934 35.5616C5.22064 35.8429 5.60218 36.0009 6 36.0009C6.39782 36.0009 6.77936 35.8429 7.06066 35.5616C7.34196 35.2803 7.5 34.8987 7.5 34.5009C7.5 31.7161 8.60625 29.0454 10.5754 27.0763C12.5445 25.1072 15.2152 24.0009 18 24.0009C20.7848 24.0009 23.4555 25.1072 25.4246 27.0763C27.3938 29.0454 28.5 31.7161 28.5 34.5009C28.5 34.8987 28.658 35.2803 28.9393 35.5616C29.2206 35.8429 29.6022 36.0009 30 36.0009C30.3978 36.0009 30.7794 35.8429 31.0607 35.5616C31.342 35.2803 31.5 34.8987 31.5 34.5009C31.496 30.9217 30.0724 27.4902 27.5416 24.9594C25.0107 22.4285 21.5792 21.0049 18 21.0009Z" fill="white"/>
</g>
<defs>
<clipPath id="clip0_1_37">
<rect width="36" height="36" fill="white"/>
</clipPath>
</defs>
</svg>
