<svg width="38" height="28" viewBox="0 0 38 28" fill="none" xmlns="http://www.w3.org/2000/svg">
<g clip-path="url(#clip0_1_105)">
<path d="M37.1647 11.6668C37.1648 11.5817 37.1524 11.4968 37.1278 11.4137L35.1294 4.56766C34.7581 3.26827 33.8094 2.10527 32.4424 1.27367C31.0755 0.442071 29.3733 -0.00756474 27.6214 0.000158905H9.81385C8.063 -0.00649145 6.3623 0.443634 4.9966 1.27515C3.6309 2.10666 2.68313 3.26906 2.31205 4.56766L0.307465 11.4137C0.282881 11.4968 0.270508 11.5817 0.270571 11.6668V12.8335C0.269331 13.9694 0.816176 15.0662 1.80783 15.917V22.1668C1.81027 23.7134 2.62085 25.196 4.06178 26.2896C5.50271 27.3831 7.45632 27.9983 9.4941 28.0002H27.9412C29.9789 27.9983 31.9326 27.3831 33.3735 26.2896C34.8144 25.196 35.625 23.7134 35.6274 22.1668V15.917C36.6191 15.0662 37.1659 13.9694 37.1647 12.8335V11.6668ZM3.34508 11.794L5.31277 5.07399C5.53574 4.29495 6.10448 3.59766 6.92383 3.0988C7.74318 2.59993 8.76343 2.32976 9.81385 2.33349H11.0314V5.83349C11.0314 6.14291 11.1933 6.43966 11.4816 6.65845C11.7699 6.87724 12.1609 7.00016 12.5686 7.00016C12.9763 7.00016 13.3673 6.87724 13.6556 6.65845C13.9439 6.43966 14.1059 6.14291 14.1059 5.83349V2.33349H23.3294V5.83349C23.3294 6.14291 23.4914 6.43966 23.7796 6.65845C24.0679 6.87724 24.4589 7.00016 24.8667 7.00016C25.2744 7.00016 25.6654 6.87724 25.9537 6.65845C26.242 6.43966 26.4039 6.14291 26.4039 5.83349V2.33349H27.6214C28.6718 2.32976 29.6921 2.59993 30.5114 3.0988C31.3308 3.59766 31.8995 4.29495 32.1225 5.07399L34.0902 11.794V12.8335C34.0902 13.4523 33.7663 14.0458 33.1897 14.4834C32.6131 14.921 31.8311 15.1668 31.0157 15.1668H29.4784C28.663 15.1668 27.881 14.921 27.3044 14.4834C26.7278 14.0458 26.4039 13.4523 26.4039 12.8335C26.4039 12.5241 26.242 12.2273 25.9537 12.0085C25.6654 11.7897 25.2744 11.6668 24.8667 11.6668C24.4589 11.6668 24.0679 11.7897 23.7796 12.0085C23.4914 12.2273 23.3294 12.5241 23.3294 12.8335C23.3294 13.4523 23.0055 14.0458 22.4289 14.4834C21.8523 14.921 21.0703 15.1668 20.2549 15.1668H17.1804C16.365 15.1668 15.583 14.921 15.0064 14.4834C14.4298 14.0458 14.1059 13.4523 14.1059 12.8335C14.1059 12.5241 13.9439 12.2273 13.6556 12.0085C13.3673 11.7897 12.9763 11.6668 12.5686 11.6668C12.1609 11.6668 11.7699 11.7897 11.4816 12.0085C11.1933 12.2273 11.0314 12.5241 11.0314 12.8335C11.0314 13.4523 10.7074 14.0458 10.1309 14.4834C9.55427 14.921 8.77226 15.1668 7.95685 15.1668H6.41959C5.60418 15.1668 4.82217 14.921 4.24558 14.4834C3.669 14.0458 3.34508 13.4523 3.34508 12.8335V11.794ZM27.9412 25.6668H9.4941C8.27099 25.6668 7.09797 25.2981 6.23309 24.6417C5.36822 23.9853 4.88234 23.0951 4.88234 22.1668V17.352C5.3844 17.4507 5.90097 17.5004 6.41959 17.5002H7.95685C8.82972 17.5005 9.69265 17.3595 10.4879 17.0864C11.2832 16.8134 11.9926 16.4147 12.5686 15.917C13.1446 16.4147 13.854 16.8134 14.6493 17.0864C15.4446 17.3595 16.3075 17.5005 17.1804 17.5002H20.2549C21.1278 17.5005 21.9907 17.3595 22.786 17.0864C23.5813 16.8134 24.2906 16.4147 24.8667 15.917C25.4427 16.4147 26.152 16.8134 26.9473 17.0864C27.7426 17.3595 28.6055 17.5005 29.4784 17.5002H31.0157C31.5343 17.5004 32.0509 17.4507 32.5529 17.352V22.1668C32.5529 23.0951 32.067 23.9853 31.2022 24.6417C30.3373 25.2981 29.1643 25.6668 27.9412 25.6668Z" fill="black"/>
</g>
<defs>
<clipPath id="clip0_1_105">
<rect x="0.270599" width="36.8941" height="28" rx="2" fill="white"/>
</clipPath>
</defs>
</svg>
