<svg width="32" height="32" viewBox="0 0 32 32" fill="none" xmlns="http://www.w3.org/2000/svg">
<path d="M20.5331 13.1733L14.4131 7.05334C14.1633 6.80501 13.8253 6.66562 13.4731 6.66562C13.1208 6.66562 12.7829 6.80501 12.5331 7.05334C12.4081 7.17729 12.3089 7.32476 12.2412 7.48724C12.1735 7.64972 12.1387 7.82399 12.1387 8.00001C12.1387 8.17602 12.1735 8.3503 12.2412 8.51278C12.3089 8.67526 12.4081 8.82273 12.5331 8.94668L18.6664 15.0533C18.7914 15.1773 18.8906 15.3248 18.9583 15.4872C19.026 15.6497 19.0608 15.824 19.0608 16C19.0608 16.176 19.026 16.3503 18.9583 16.5128C18.8906 16.6753 18.7914 16.8227 18.6664 16.9467L12.5331 23.0533C12.282 23.3026 12.1402 23.6415 12.139 23.9953C12.1377 24.3491 12.2771 24.6889 12.5264 24.94C12.7757 25.1911 13.1145 25.3328 13.4684 25.3341C13.8222 25.3353 14.162 25.196 14.4131 24.9467L20.5331 18.8267C21.2821 18.0767 21.7029 17.06 21.7029 16C21.7029 14.94 21.2821 13.9233 20.5331 13.1733V13.1733Z" fill="black"/>
</svg>
