<svg width="39" height="29" viewBox="0 0 39 29" fill="none" xmlns="http://www.w3.org/2000/svg">
<path d="M14.1765 16L19.1765 18.8868V13.1132L14.1765 16ZM14.8353 23.5C14.5592 23.5 14.3353 23.7239 14.3353 24C14.3353 24.2761 14.5592 24.5 14.8353 24.5V23.5ZM37.3967 7.93376L37.7724 7.60378L37.3967 7.93376ZM1.5 17V9.25368H0.5V17H1.5ZM1.87305 8.26374L7.36649 2.01005L6.61519 1.35009L1.12176 7.60378L1.87305 8.26374ZM8.49343 1.5H30.4007V0.5H8.49343V1.5ZM31.5276 2.01005L37.0211 8.26374L37.7724 7.60378L32.2789 1.35009L31.5276 2.01005ZM37.3941 9.25368V26.5H38.3941V9.25368H37.3941ZM35.8941 28H3V29H35.8941V28ZM1.5 26.5V22.75H0.5V26.5H1.5ZM1.5 22.75V17H0.5V22.75H1.5ZM18.6765 16.5H24.6941V15.5H18.6765V16.5ZM24.6941 23.5H14.8353V24.5H24.6941V23.5ZM26.1941 18V20H27.1941V18H26.1941ZM26.1941 20V22H27.1941V20H26.1941ZM24.6941 24.5C26.0748 24.5 27.1941 23.3807 27.1941 22H26.1941C26.1941 22.8284 25.5225 23.5 24.6941 23.5V24.5ZM24.6941 16.5C25.5225 16.5 26.1941 17.1716 26.1941 18H27.1941C27.1941 16.6193 26.0748 15.5 24.6941 15.5V16.5ZM3 28C2.17157 28 1.5 27.3284 1.5 26.5H0.5C0.5 27.8807 1.61928 29 3 29V28ZM37.3941 26.5C37.3941 27.3284 36.7225 28 35.8941 28V29C37.2748 29 38.3941 27.8807 38.3941 26.5H37.3941ZM37.0211 8.26374C37.2615 8.53747 37.3941 8.88935 37.3941 9.25368H38.3941C38.3941 8.64646 38.1731 8.05999 37.7724 7.60378L37.0211 8.26374ZM30.4007 1.5C30.8322 1.5 31.2428 1.68585 31.5276 2.01005L32.2789 1.35009C31.8043 0.809747 31.1199 0.5 30.4007 0.5V1.5ZM7.36649 2.01005C7.65128 1.68585 8.0619 1.5 8.49343 1.5V0.5C7.77422 0.5 7.08984 0.809747 6.61519 1.35009L7.36649 2.01005ZM1.5 9.25368C1.5 8.88935 1.6326 8.53747 1.87305 8.26374L1.12176 7.60378C0.721008 8.05999 0.5 8.64646 0.5 9.25368H1.5Z" fill="black"/>
</svg>
