<svg width="54" height="37" viewBox="0 0 54 37" fill="none" xmlns="http://www.w3.org/2000/svg">
<rect x="1.5788" width="38.6015" height="1.12676" rx="0.56338" fill="black"/>
<rect x="1.5788" y="28.169" width="38.6015" height="1.12676" rx="0.56338" fill="black"/>
<rect x="1.5788" y="1.12675" width="1.48467" height="7.88732" rx="0.742336" fill="black"/>
<rect x="38.6956" y="1.12675" width="1.48467" height="27.0423" rx="0.742336" fill="black"/>
<rect x="3.06348" y="11.2676" width="11.8774" height="2.25352" rx="1.12676" fill="black"/>
<rect x="0.0940552" y="15.7746" width="14.8467" height="1.12676" rx="0.56338" fill="black"/>
<rect x="1.5788" y="19.1549" width="22.2701" height="2.25352" rx="1.12676" fill="black"/>
<rect x="1.5788" y="22.5352" width="1.48467" height="5.6338" rx="0.742336" fill="black"/>
<rect x="40.1803" y="11.2676" width="5.93869" height="1.12676" rx="0.56338" fill="black"/>
<path d="M45.3766 11.831L52.1466 17.9966C52.5627 18.3755 52.7999 18.9124 52.7999 19.4752V25.6056C52.7999 26.7102 51.9045 27.6056 50.7999 27.6056H39.4379" stroke="black"/>
<path d="M51.5576 30.9859C51.5576 32.196 50.9126 33.3275 49.7985 34.173C48.6841 35.0187 47.1224 35.5563 45.3766 35.5563C43.6308 35.5563 42.0691 35.0187 40.9547 34.173C39.8406 33.3275 39.1956 32.196 39.1956 30.9859C39.1956 29.7759 39.8406 28.6444 40.9547 27.7989C42.0691 26.9531 43.6308 26.4155 45.3766 26.4155C47.1224 26.4155 48.6841 26.9531 49.7985 27.7989C50.9126 28.6444 51.5576 29.7759 51.5576 30.9859Z" stroke="black"/>
<path d="M23.3489 30.9859C23.3489 32.196 22.7038 33.3275 21.5898 34.173C20.4754 35.0187 18.9136 35.5563 17.1678 35.5563C15.422 35.5563 13.8603 35.0187 12.7459 34.173C11.6319 33.3275 10.9868 32.196 10.9868 30.9859C10.9868 29.7759 11.6319 28.6444 12.7459 27.7989C13.8603 26.9531 15.422 26.4155 17.1678 26.4155C18.9136 26.4155 20.4754 26.9531 21.5898 27.7989C22.7038 28.6444 23.3489 29.7759 23.3489 30.9859Z" stroke="black"/>
</svg>
