<svg width="14" height="14" viewBox="0 0 14 14" fill="none" xmlns="http://www.w3.org/2000/svg">
<g clip-path="url(#clip0_4_27)">
<path d="M4.66661 13.6003C5.25571 13.6003 5.73327 13.1227 5.73327 12.5336C5.73327 11.9445 5.25571 11.467 4.66661 11.467C4.07751 11.467 3.59995 11.9445 3.59995 12.5336C3.59995 13.1227 4.07751 13.6003 4.66661 13.6003Z" fill="black"/>
<path d="M9.99998 13.6003C10.5891 13.6003 11.0666 13.1227 11.0666 12.5336C11.0666 11.9445 10.5891 11.467 9.99998 11.467C9.41088 11.467 8.93332 11.9445 8.93332 12.5336C8.93332 13.1227 9.41088 13.6003 9.99998 13.6003Z" fill="black"/>
<path d="M13.2 2.39999H12.1334V1.33332C12.1334 1.19187 12.0772 1.05622 11.9772 0.956198C11.8771 0.856178 11.7415 0.799988 11.6 0.799988C11.4586 0.799988 11.3229 0.856178 11.2229 0.956198C11.1229 1.05622 11.0667 1.19187 11.0667 1.33332V2.39999H10C9.85859 2.39999 9.72293 2.45618 9.62291 2.5562C9.5229 2.65622 9.46671 2.79187 9.46671 2.93332C9.46671 3.07477 9.5229 3.21043 9.62291 3.31044C9.72293 3.41046 9.85859 3.46665 10 3.46665H11.0667V4.53332C11.0667 4.67477 11.1229 4.81043 11.2229 4.91044C11.3229 5.01046 11.4586 5.06665 11.6 5.06665C11.7415 5.06665 11.8771 5.01046 11.9772 4.91044C12.0772 4.81043 12.1334 4.67477 12.1334 4.53332V3.46665H13.2C13.3415 3.46665 13.4771 3.41046 13.5772 3.31044C13.6772 3.21043 13.7334 3.07477 13.7334 2.93332C13.7334 2.79187 13.6772 2.65622 13.5772 2.5562C13.4771 2.45618 13.3415 2.39999 13.2 2.39999V2.39999Z" fill="black"/>
<path d="M12.5445 5.98719C12.4756 5.97428 12.4047 5.9752 12.3361 5.98987C12.2675 6.00454 12.2025 6.03269 12.1449 6.07267C12.0872 6.11266 12.0381 6.16369 12.0003 6.2228C11.9625 6.28192 11.9369 6.34794 11.9248 6.41705C11.8583 6.7862 11.6642 7.12025 11.3764 7.36084C11.0886 7.60143 10.7255 7.73326 10.3504 7.73332H3.82292L3.32159 3.46665H7.86665C8.0081 3.46665 8.14376 3.41046 8.24378 3.31044C8.34379 3.21043 8.39999 3.07477 8.39999 2.93332C8.39999 2.79187 8.34379 2.65622 8.24378 2.5562C8.14376 2.45618 8.0081 2.39999 7.86665 2.39999H3.19572L3.17332 2.21225C3.12736 1.82324 2.94028 1.4646 2.64755 1.20431C2.35482 0.944017 1.97677 0.800155 1.58505 0.799988L1.46665 0.799988C1.3252 0.799988 1.18955 0.856178 1.08953 0.956198C0.989509 1.05622 0.933319 1.19187 0.933319 1.33332C0.933319 1.47477 0.989509 1.61043 1.08953 1.71044C1.18955 1.81046 1.3252 1.86665 1.46665 1.86665H1.58505C1.71568 1.86667 1.84177 1.91463 1.93938 2.00144C2.037 2.08824 2.09937 2.20785 2.11465 2.33759L2.84852 8.57759C2.92471 9.22654 3.23651 9.82494 3.72474 10.2592C4.21297 10.6934 4.84364 10.9333 5.49705 10.9333H11.0667C11.2081 10.9333 11.3438 10.8771 11.4438 10.7771C11.5438 10.6771 11.6 10.5414 11.6 10.4C11.6 10.2585 11.5438 10.1229 11.4438 10.0229C11.3438 9.92284 11.2081 9.86665 11.0667 9.86665H5.49705C5.16613 9.86672 4.84333 9.76417 4.57311 9.57314C4.30289 9.3821 4.09856 9.11198 3.98825 8.79999H10.3504C10.9755 8.80005 11.5808 8.58048 12.0605 8.17963C12.5403 7.77878 12.8639 7.22213 12.9749 6.60692C12.9874 6.53797 12.9861 6.46723 12.9712 6.39876C12.9563 6.33029 12.9281 6.26542 12.8881 6.20787C12.8482 6.15031 12.7972 6.1012 12.7383 6.06334C12.6793 6.02547 12.6135 5.99959 12.5445 5.98719Z" fill="black"/>
</g>
<defs>
<clipPath id="clip0_4_27">
<rect width="12.8" height="12.8" fill="white" transform="translate(0.933319 0.799988)"/>
</clipPath>
</defs>
</svg>
